<?xml version="1.0" encoding="UTF-8"?>
<svg version="1.1" xmlns="http://www.w3.org/2000/svg" width="480" height="480">
<path d="M0 0 C0.96594086 0.00054382 1.93188171 0.00108765 2.92709351 0.00164795 C18.82427694 0.04267209 34.1070568 0.96742637 49.6875 4.375 C51.16669922 4.69645996 51.16669922 4.69645996 52.67578125 5.02441406 C93.85589947 14.29398851 131.03949841 33.63803073 162.17578125 62.0859375 C163.8674032 63.62760229 165.57355651 65.15345444 167.29296875 66.6640625 C172.53113171 71.27618177 177.23077946 76.01166608 181.6875 81.375 C182.42355469 82.22320312 183.15960938 83.07140625 183.91796875 83.9453125 C221.18144117 127.42923739 241.18391891 182.55254199 241.0625 239.6875 C241.06168427 241.13641129 241.06168427 241.13641129 241.06085205 242.61459351 C241.01982791 258.51177694 240.09507363 273.7945568 236.6875 289.375 C236.36604004 290.85419922 236.36604004 290.85419922 236.03808594 292.36328125 C226.76851149 333.54339947 207.42446927 370.72699841 178.9765625 401.86328125 C177.43489771 403.5549032 175.90904556 405.26105651 174.3984375 406.98046875 C169.78631823 412.21863171 165.05083392 416.91827946 159.6875 421.375 C158.83929688 422.11105469 157.99109375 422.84710938 157.1171875 423.60546875 C113.63326261 460.86894117 58.50995801 480.87141891 1.375 480.75 C0.40905914 480.74945618 -0.55688171 480.74891235 -1.55209351 480.74835205 C-17.44927694 480.70732791 -32.7320568 479.78257363 -48.3125 476.375 C-49.29863281 476.16069336 -50.28476563 475.94638672 -51.30078125 475.72558594 C-92.48089947 466.45601149 -129.66449841 447.11196927 -160.80078125 418.6640625 C-162.4924032 417.12239771 -164.19855651 415.59654556 -165.91796875 414.0859375 C-171.15613171 409.47381823 -175.85577946 404.73833392 -180.3125 399.375 C-181.04855469 398.52679688 -181.78460938 397.67859375 -182.54296875 396.8046875 C-219.80644117 353.32076261 -239.80891891 298.19745801 -239.6875 241.0625 C-239.68695618 240.09655914 -239.68641235 239.13061829 -239.68585205 238.13540649 C-239.64482791 222.23822306 -238.72007363 206.9554432 -235.3125 191.375 C-235.09819336 190.38886719 -234.88388672 189.40273437 -234.66308594 188.38671875 C-225.39351149 147.20660053 -206.04946927 110.02300159 -177.6015625 78.88671875 C-176.05989771 77.1950968 -174.53404556 75.48894349 -173.0234375 73.76953125 C-168.41131823 68.53136829 -163.67583392 63.83172054 -158.3125 59.375 C-157.46429688 58.63894531 -156.61609375 57.90289062 -155.7421875 57.14453125 C-112.25826261 19.88105883 -57.13495801 -0.12141891 0 0 Z " fill="#B061FF" transform="translate(239.3125,-0.375)"/>
<path d="M0 0 C12.6851684 -0.0468248 25.37031546 -0.08211919 38.05555344 -0.10362434 C43.94901381 -0.11395787 49.84241406 -0.12792033 55.73583984 -0.15087891 C158.80027293 -0.54140132 158.80027293 -0.54140132 184.890625 24.82421875 C185.58671875 25.54222656 186.2828125 26.26023437 187 27 C187.57234375 27.56332031 188.1446875 28.12664062 188.734375 28.70703125 C199.35264734 39.95473726 202.60856417 55.54174207 202.22265625 70.55859375 C200.95529309 90.14713661 194.72857774 104.98639988 181 119 C180.41992188 119.61617188 179.83984375 120.23234375 179.2421875 120.8671875 C164.46787657 135.24398334 141.7425233 140.93372254 122 144 C123.56234375 144.20302734 123.56234375 144.20302734 125.15625 144.41015625 C143.10343672 146.99997139 158.48732833 153.39941313 170.30078125 167.71875 C184.95689989 187.39501042 193.0853702 211.3281015 202.14222717 233.89653015 C205.11902578 241.309222 208.12228643 248.71039123 211.18344116 256.08868408 C211.71688029 257.37813267 212.24715344 258.66889682 212.77383423 259.96112061 C220.23910818 278.89181362 220.23910818 278.89181362 235 292 C238.34498399 292.57154439 238.34498399 292.57154439 241.8125 292.6875 C243.55466797 292.78611328 243.55466797 292.78611328 245.33203125 292.88671875 C246.21246094 292.92410156 247.09289062 292.96148437 248 293 C248 294.98 248 296.96 248 299 C239.55050915 300.96562911 231.25157574 301.37254703 222.62036133 301.37060547 C220.43688136 301.37500125 218.25539334 301.4115153 216.07226562 301.44921875 C208.01602098 301.51419077 201.23023198 300.89718497 194 297 C193.10925781 296.53078125 192.21851563 296.0615625 191.30078125 295.578125 C165.82898057 278.56356266 156.3620763 238.82512997 145.55548096 211.55712891 C133.73615299 175.28271965 133.73615299 175.28271965 108.3125 149.6875 C102.6776717 147.31546748 97.60834081 146.81270045 91.515625 146.68359375 C90.29223419 146.6524221 90.29223419 146.6524221 89.04412842 146.62062073 C86.44616895 146.55538703 83.84811087 146.49636232 81.25 146.4375 C79.485667 146.39428986 77.72134387 146.35067478 75.95703125 146.30664062 C71.63812116 146.19973255 67.31911216 146.09839173 63 146 C63.06070391 161.69969893 63.13832221 177.39921905 63.23571491 193.09872818 C63.28055451 200.38937172 63.31999594 207.67996771 63.34643555 214.97070312 C63.36951206 221.33019886 63.40301639 227.68954259 63.44870156 234.04891753 C63.47250499 237.41178687 63.4897611 240.77436984 63.49761391 244.13733673 C63.50729763 247.90460797 63.53540934 251.67133958 63.56762695 255.43847656 C63.56619186 256.53612335 63.56475677 257.63377014 63.5632782 258.76467896 C63.68381354 268.7917674 64.89251142 280.29721416 72 288 C74.09302449 289.38108493 76.14979225 290.54981158 78.42578125 291.6015625 C78.94527344 292.06304687 79.46476562 292.52453125 80 293 C80 294.98 80 296.96 80 299 C53.6 299 27.2 299 0 299 C0 297.02 0 295.04 0 293 C1.828125 291.3828125 1.828125 291.3828125 4.25 290.125 C10.99480443 286.01257222 12.57438434 281.07227145 14.57829285 273.64849854 C16.82719472 263.60828856 16.41046161 253.42411162 16.37231445 243.18652344 C16.37474588 240.8938175 16.3784686 238.60111262 16.38337708 236.30841064 C16.3927394 230.11450159 16.383401 223.92075184 16.37004495 217.72685528 C16.35868545 211.231498 16.36284129 204.73614805 16.36479187 198.24078369 C16.36567317 187.33985759 16.35469817 176.43899522 16.33618164 165.53808594 C16.31716358 154.33884805 16.3100998 143.13968257 16.31567383 131.94042969 C16.32238677 118.41302948 16.3190758 104.88568184 16.30657005 91.358284 C16.30193253 86.20220597 16.30104652 81.04614759 16.3031559 75.89006805 C16.30504232 69.81937179 16.29690757 63.74876811 16.2810955 57.67809296 C16.2768611 55.453312 16.27599641 53.22852164 16.27878571 51.0037384 C16.28202035 47.96184371 16.27289344 44.92022342 16.26069641 41.87835693 C16.26447573 41.00295816 16.26825506 40.12755939 16.27214891 39.22563338 C16.20465912 29.67858826 14.57584268 17.57584268 7.5625 10.5625 C5.00390188 8.94806303 5.00390188 8.94806303 2.1875 7.625 C1.465625 7.08875 0.74375 6.5525 0 6 C-0.13671875 2.8984375 -0.13671875 2.8984375 0 0 Z " fill="#FDFCFF" transform="translate(128,96)"/>
<path d="M0 0 C16.29613917 11.64009941 25.46241236 28.84355817 28.85107422 48.3359375 C31.23988476 65.39347879 27.96480581 83.82278376 17.53515625 97.79296875 C4.10019045 113.5260208 -13.00061679 117.88969984 -32.83984375 119.54296875 C-43.39984375 119.54296875 -53.95984375 119.54296875 -64.83984375 119.54296875 C-64.83984375 76.31296875 -64.83984375 33.08296875 -64.83984375 -11.45703125 C-43.25280565 -15.77443887 -18.55858204 -12.05223441 0 0 Z " fill="#B061FF" transform="translate(255.83984375,115.45703125)"/>
</svg>
